# xmcd CD Database Entry
#
# Track frame offsets:
# 187
# 19362
# 31787
# 45777
# 68920
# 91935
# 108425
# 130012
# 149372
#
# Disc length: 2221 seconds
#
# Revision: 1
# Processed by: cddbd v1.4PL0 Copyright (c) Steve Scherf et al.
# Submitted via: tcd 2.0b
#
DISCID=6d08ab09
DTITLE=B. B. King - Blues 'n' Jazz
DYEAR=1900
DGENRE=
TTITLE0=Inflation Blues
TTITLE1=Broken Heart
TTITLE2=Sell My Monkey
TTITLE3=Heed My Warning
TTITLE4=Teardrops From My Eyes
TTITLE5=Rainbow Riot
TTITLE6=Darlin' You Know I Love You
TTITLE7=Make Love To Me
TTITLE8=I Can't Let You Go
EXTD=Copyright 1983 MCA Records\nMCAD-27119
EXTT0=
EXTT1=
EXTT2=
EXTT3=
EXTT4=
EXTT5=
EXTT6=
EXTT7=
EXTT8=
PLAYORDER=
